<svg width="640" height="520" viewBox="0 0 640 520" xmlns="http://www.w3.org/2000/svg" role="img" aria-labelledby="heroTitle heroDesc">
  <title id="heroTitle">SignalDraft sample content collage</title>
  <desc id="heroDesc">Abstract cards representing LinkedIn posts, articles, and metrics.</desc>
  <defs>
    <linearGradient id="bgGradient" x1="0" y1="0" x2="1" y2="1">
      <stop offset="0%" stop-color="#132036" />
      <stop offset="100%" stop-color="#0b1221" />
    </linearGradient>
    <linearGradient id="accentGradient" x1="0" y1="0" x2="1" y2="1">
      <stop offset="0%" stop-color="#2fbfa9" />
      <stop offset="100%" stop-color="#4dd2c0" />
    </linearGradient>
  </defs>
  <rect width="640" height="520" rx="32" fill="url(#bgGradient)" />
  <g transform="translate(48 48)">
    <rect width="260" height="130" rx="18" fill="#161f34" stroke="#203152" stroke-width="1.5" />
    <rect x="24" y="32" width="180" height="12" rx="6" fill="#4dd2c0" opacity="0.8" />
    <rect x="24" y="60" width="212" height="10" rx="5" fill="#94a3b8" opacity="0.8" />
    <rect x="24" y="82" width="150" height="10" rx="5" fill="#64748b" opacity="0.8" />
  </g>
  <g transform="translate(332 68)">
    <rect width="220" height="160" rx="18" fill="#132842" stroke="#1f3654" stroke-width="1.5" />
    <rect x="24" y="28" width="120" height="12" rx="6" fill="#4dd2c0" opacity="0.8" />
    <rect x="24" y="56" width="172" height="10" rx="5" fill="#cbd5f5" opacity="0.7" />
    <rect x="24" y="78" width="140" height="10" rx="5" fill="#9fb3e2" opacity="0.7" />
    <rect x="24" y="108" width="64" height="24" rx="12" fill="url(#accentGradient)" />
  </g>
  <g transform="translate(84 214)">
    <rect width="280" height="180" rx="20" fill="#101a2d" stroke="#1d2c45" stroke-width="1.5" />
    <circle cx="68" cy="94" r="54" fill="#192946" />
    <path d="M40 94c0-30 24-54 54-54" stroke="#4dd2c0" stroke-width="6" stroke-linecap="round" fill="none" />
    <rect x="150" y="54" width="98" height="12" rx="6" fill="#e2e8f0" opacity="0.9" />
    <rect x="150" y="80" width="92" height="10" rx="5" fill="#94a3b8" opacity="0.9" />
    <rect x="150" y="104" width="120" height="10" rx="5" fill="#4dd2c0" opacity="0.7" />
  </g>
  <g transform="translate(360 276)">
    <rect width="212" height="176" rx="20" fill="#121f34" stroke="#1c2c45" stroke-width="1.5" />
    <rect x="28" y="36" width="96" height="10" rx="5" fill="#e2e8f0" opacity="0.9" />
    <rect x="28" y="58" width="152" height="10" rx="5" fill="#94a3b8" opacity="0.8" />
    <rect x="28" y="80" width="170" height="10" rx="5" fill="#4dd2c0" opacity="0.8" />
    <rect x="28" y="118" width="72" height="26" rx="13" fill="url(#accentGradient)" />
    <rect x="112" y="118" width="72" height="26" rx="13" fill="#1e2d4d" />
  </g>
  <circle cx="560" cy="120" r="14" fill="#4dd2c0" opacity="0.4" />
  <circle cx="92" cy="440" r="10" fill="#f8ba5f" opacity="0.6" />
  <circle cx="520" cy="420" r="8" fill="#4dd2c0" opacity="0.5" />
</svg>
