<svg width="360" height="260" viewBox="0 0 360 260" xmlns="http://www.w3.org/2000/svg" role="img" aria-labelledby="sample2Title sample2Desc">
  <title id="sample2Title">Veteran founder feature mock</title>
  <desc id="sample2Desc">Stacked cards showing headline blocks and engagement stats.</desc>
  <defs>
    <linearGradient id="sample2Gradient" x1="0" y1="0" x2="1" y2="1">
      <stop offset="0%" stop-color="#18243c" />
      <stop offset="100%" stop-color="#0e1729" />
    </linearGradient>
  </defs>
  <rect width="360" height="260" rx="26" fill="url(#sample2Gradient)" />
  <rect x="32" y="32" width="296" height="64" rx="14" fill="#111c31" />
  <rect x="48" y="50" width="120" height="12" rx="6" fill="#e2e8f0" />
  <rect x="48" y="70" width="206" height="10" rx="5" fill="#94a3b8" />
  <rect x="56" y="116" width="248" height="96" rx="20" fill="#172541" stroke="#213759" stroke-width="1.5" />
  <rect x="76" y="140" width="120" height="12" rx="6" fill="#4dd2c0" />
  <rect x="76" y="162" width="160" height="10" rx="5" fill="#cbd5f5" />
  <rect x="76" y="182" width="96" height="10" rx="5" fill="#94a3b8" />
  <rect x="220" y="134" width="80" height="72" rx="16" fill="#111c31" />
  <rect x="236" y="154" width="48" height="12" rx="6" fill="#f8ba5f" />
  <rect x="228" y="180" width="64" height="6" rx="3" fill="#4dd2c0" />
  <rect x="228" y="194" width="64" height="6" rx="3" fill="#304866" />
</svg>
